<svg xmlns="http://www.w3.org/2000/svg" xmlns:xlink="http://www.w3.org/1999/xlink" width="500" zoomAndPan="magnify" viewBox="0 0 375 374.999991" height="500" preserveAspectRatio="xMidYMid meet" version="1.0"><defs><g/><clipPath id="b0a150caab"><path d="M 0 5 L 260 5 L 260 375 L 0 375 Z M 0 5 " clip-rule="nonzero"/></clipPath><clipPath id="54578bcbaa"><path d="M 159.675781 135.300781 C 182.023438 146.550781 198.675781 154.875 209.25 163.648438 C 219.226562 171.976562 227.699219 181.800781 234.976562 192.523438 C 242.476562 203.550781 249.300781 216.074219 253.273438 229.050781 C 257.324219 242.324219 261.675781 258.226562 258.75 271.351562 C 255.675781 284.625 244.574219 298.351562 234.824219 308.25 C 225.601562 317.550781 213.976562 325.125 202.273438 329.773438 C 190.726562 334.273438 177.75 335.25 165.148438 336.074219 C 152.25 336.898438 138.824219 335.625 125.699219 334.648438 C 112.726562 333.675781 99.898438 333.074219 87 330.226562 C 73.5 327.148438 58.574219 323.925781 46.648438 316.5 C 34.351562 308.925781 23.175781 296.324219 14.625 284.773438 C 6.601562 274.050781 0.75 262.199219 -3.898438 250.199219 C -8.550781 238.273438 -11.699219 225.675781 -13.351562 212.925781 C -14.925781 199.800781 -13.648438 186 -13.273438 172.5 C -12.824219 158.699219 -11.324219 144.675781 -10.875 130.949219 C -10.425781 117.449219 -10.199219 104.023438 -10.5 90.824219 C -10.800781 77.851562 -12.601562 61.125 -12.523438 52.273438 C -12.449219 47.550781 -12.449219 45 -11.699219 41.476562 C -11.023438 37.949219 -9.898438 34.425781 -8.398438 31.199219 C -6.898438 27.976562 -4.949219 24.824219 -2.699219 22.050781 C -0.449219 19.199219 2.175781 16.648438 5.023438 14.476562 C 7.875 12.300781 11.023438 10.425781 14.324219 9 C 17.625 7.574219 21.148438 6.523438 24.675781 5.925781 C 28.199219 5.25 31.875 5.101562 35.476562 5.324219 C 39 5.625 42.675781 6.300781 46.050781 7.425781 C 49.425781 8.550781 52.800781 10.050781 55.875 12 C 58.875 13.875 61.800781 16.199219 64.273438 18.75 C 66.75 21.300781 69 24.226562 70.875 27.300781 C 72.675781 30.375 74.175781 33.75 75.148438 37.199219 C 76.199219 40.648438 76.949219 43.125 77.023438 47.851562 C 77.175781 56.925781 74.175781 75 71.398438 88.050781 C 68.699219 100.726562 63.976562 112.648438 60.75 125.175781 C 57.449219 137.925781 54.898438 148.875 51.824219 164.023438 C 47.699219 185.023438 42.074219 217.800781 39 239.550781 C 36.675781 255.824219 34.800781 268.574219 34.199219 282.523438 C 33.675781 295.648438 33.675781 310.125 35.25 321 C 36.449219 329.101562 39.675781 336.148438 40.949219 342 C 41.851562 346.199219 42.523438 349.273438 42.675781 352.875 C 42.824219 356.550781 42.523438 360.300781 41.773438 363.898438 C 41.023438 367.425781 39.824219 371.023438 38.25 374.324219 C 36.675781 377.625 34.648438 380.773438 32.324219 383.625 C 30.074219 386.476562 27.300781 389.023438 24.375 391.273438 C 21.449219 393.449219 18.226562 395.324219 14.851562 396.75 C 11.476562 398.175781 7.875 399.226562 4.273438 399.75 C 0.675781 400.351562 -3.074219 400.5 -6.75 400.199219 C -10.351562 399.898438 -14.101562 399.148438 -17.550781 397.949219 C -21 396.824219 -24.375 395.175781 -27.449219 393.226562 C -30.523438 391.273438 -33.449219 388.875 -36 386.25 C -38.550781 383.625 -40.800781 380.625 -42.601562 377.476562 C -44.398438 374.25 -46.425781 371.925781 -46.875 367.273438 C -47.851562 358.273438 -43.425781 334.425781 -38.476562 325.875 C -35.550781 320.773438 -31.5 318.601562 -27.375 316.050781 C -23.25 313.425781 -18.523438 311.398438 -13.800781 310.273438 C -9.074219 309.074219 -3.898438 308.699219 0.976562 309.148438 C 5.773438 309.523438 10.800781 310.875 15.300781 312.75 C 19.726562 314.699219 24.074219 317.550781 27.675781 320.851562 C 31.273438 324.074219 34.574219 328.125 36.898438 332.398438 C 39.300781 336.601562 41.023438 341.550781 41.925781 346.273438 C 42.824219 351.074219 42.898438 356.25 42.226562 361.050781 C 41.550781 365.925781 40.050781 370.875 37.800781 375.226562 C 35.625 379.5 32.625 383.699219 29.175781 387.148438 C 25.648438 390.601562 21.449219 393.601562 17.101562 395.699219 C 12.75 397.875 7.726562 399.375 2.925781 399.976562 C -1.875 400.574219 -7.050781 400.425781 -11.851562 399.523438 C -16.648438 398.550781 -21.449219 396.75 -25.726562 394.351562 C -29.925781 391.875 -33.976562 388.648438 -37.199219 384.976562 C -40.425781 381.375 -43.199219 376.949219 -45.074219 372.523438 C -46.949219 368.023438 -48.226562 363 -48.523438 358.125 C -48.898438 353.25 -48.449219 348.074219 -47.25 343.425781 C -46.050781 338.699219 -44.023438 333.898438 -41.324219 329.851562 C -38.699219 325.726562 -35.25 321.898438 -31.425781 318.898438 C -27.601562 315.824219 -23.101562 313.351562 -18.523438 311.699219 C -13.949219 310.050781 -8.851562 309.074219 -3.976562 309 C 0.898438 308.851562 6 309.601562 10.648438 311.023438 C 15.300781 312.523438 19.949219 314.851562 23.851562 317.699219 C 27.824219 320.550781 31.425781 324.226562 34.273438 328.199219 C 37.050781 332.175781 39.375 336.824219 40.800781 341.476562 C 42.148438 346.125 42.824219 351.300781 42.675781 356.175781 C 42.523438 361.050781 40.273438 370.726562 39.824219 370.648438 C 39.226562 370.574219 40.199219 342.074219 40.949219 342 C 41.398438 342 42.523438 349.273438 42.675781 352.875 C 42.824219 356.550781 42.523438 360.300781 41.773438 363.898438 C 41.023438 367.425781 39.824219 371.023438 38.25 374.324219 C 36.675781 377.625 34.648438 380.773438 32.324219 383.625 C 30.074219 386.398438 27.300781 389.023438 24.375 391.199219 C 21.523438 393.449219 18.226562 395.324219 14.851562 396.75 C 11.476562 398.175781 7.875 399.226562 4.273438 399.75 C 0.675781 400.351562 -3.074219 400.5 -6.75 400.199219 C -10.351562 399.898438 -14.101562 399.148438 -17.550781 397.949219 C -21 396.824219 -24.375 395.175781 -27.449219 393.226562 C -30.523438 391.273438 -33.449219 388.875 -36 386.25 C -38.550781 383.625 -40.800781 380.625 -42.601562 377.476562 C -44.398438 374.324219 -47.476562 367.875 -46.875 367.273438 C -46.648438 367.050781 -45.523438 368.398438 -45.226562 368.101562 C -43.5 366.675781 -54.148438 338.25 -56.023438 323.773438 C -57.75 310.050781 -57.148438 296.625 -56.625 283.425781 C -56.175781 270.675781 -55.125 260.773438 -53.25 246 C -50.625 224.324219 -44.699219 188.25 -40.949219 166.199219 C -38.25 150.523438 -36.675781 139.050781 -33.523438 126.074219 C -30.449219 113.550781 -25.875 102 -22.425781 89.699219 C -18.898438 77.398438 -13.949219 61.050781 -12.523438 52.273438 C -11.699219 47.625 -12.449219 45 -11.699219 41.476562 C -11.023438 37.949219 -9.898438 34.425781 -8.398438 31.199219 C -6.898438 27.976562 -4.949219 24.824219 -2.699219 22.050781 C -0.449219 19.199219 2.175781 16.648438 5.023438 14.476562 C 7.875 12.300781 11.023438 10.425781 14.324219 9 C 17.625 7.574219 21.148438 6.523438 24.675781 5.925781 C 28.199219 5.25 31.875 5.101562 35.476562 5.324219 C 39 5.625 42.675781 6.300781 46.050781 7.425781 C 49.425781 8.550781 52.800781 10.050781 55.875 12 C 58.875 13.875 61.800781 16.199219 64.273438 18.75 C 66.75 21.300781 69 24.226562 70.875 27.300781 C 72.675781 30.375 74.175781 33.75 75.148438 37.199219 C 76.199219 40.648438 76.5 43.125 77.023438 47.851562 C 77.925781 56.851562 78.449219 74.175781 78.675781 87.449219 C 78.898438 100.800781 78.675781 114.300781 78.226562 127.800781 C 77.699219 141.300781 76.351562 154.800781 75.75 168.300781 C 75.148438 181.648438 71.699219 195.675781 74.625 208.199219 C 77.550781 220.800781 83.699219 236.699219 93.375 243.601562 C 102.976562 250.425781 119.625 250.949219 132.300781 249.675781 C 144.898438 248.398438 168 242.324219 169.125 235.800781 C 170.25 229.199219 146.851562 215.625 138.601562 210.074219 C 133.574219 206.699219 129.375 205.5 125.699219 203.324219 C 122.773438 201.601562 120.375 200.25 118.050781 198.300781 C 115.726562 196.273438 113.625 193.949219 111.824219 191.550781 C 110.101562 189.074219 108.601562 186.300781 107.398438 183.523438 C 106.273438 180.675781 105.523438 177.675781 105.074219 174.675781 C 104.625 171.675781 104.550781 168.523438 104.925781 165.449219 C 105.226562 162.449219 105.898438 159.375 106.875 156.523438 C 107.925781 153.675781 109.351562 150.898438 111 148.351562 C 112.648438 145.800781 114.75 143.398438 116.925781 141.375 C 119.175781 139.273438 121.726562 137.476562 124.351562 136.050781 C 127.050781 134.550781 129.976562 133.351562 132.898438 132.601562 C 135.824219 131.773438 138.898438 131.398438 141.976562 131.324219 C 144.976562 131.25 148.125 131.550781 151.050781 132.226562 C 154.050781 132.898438 159.675781 135.300781 159.675781 135.300781 " clip-rule="nonzero"/></clipPath><clipPath id="6e0e866650"><path d="M -177.898438 76.273438 C -164.175781 27.824219 -150.300781 18.523438 -138.523438 11.851562 C -126.976562 5.476562 -113.550781 2.699219 -100.875 -0.601562 C -88.199219 -3.898438 -74.773438 -6.074219 -62.476562 -7.875 C -51.148438 -9.523438 -31.5 -8.175781 -29.699219 -11.324219 C -29.023438 -12.523438 -31.050781 -14.324219 -31.726562 -15.898438 C -32.476562 -17.476562 -33.898438 -20.699219 -33.898438 -20.773438 C -33.976562 -20.851562 -34.574219 -24.300781 -34.875 -26.023438 C -35.175781 -27.75 -35.773438 -31.199219 -35.773438 -31.273438 C -35.851562 -31.351562 -35.550781 -35.324219 -35.476562 -36.601562 C -35.398438 -37.351562 -35.324219 -37.949219 -35.324219 -38.398438 C -35.398438 -38.773438 -35.550781 -39.226562 -35.550781 -39.226562 C -35.550781 -39.226562 -35.398438 -38.773438 -35.324219 -38.773438 C -35.175781 -38.851562 -35.101562 -41.925781 -35.101562 -41.925781 C -35.101562 -42 -34.050781 -45.375 -33.523438 -47.023438 C -33 -48.75 -31.949219 -52.050781 -31.875 -52.125 C -31.875 -52.199219 -30.074219 -55.199219 -29.101562 -56.699219 C -28.199219 -58.199219 -26.398438 -61.199219 -26.324219 -61.273438 C -26.25 -61.273438 -23.773438 -63.75 -22.5 -65.023438 C -21.300781 -66.300781 -18.824219 -68.699219 -18.75 -68.773438 C -18.675781 -68.851562 -15.675781 -70.574219 -14.175781 -71.550781 C -12.601562 -72.449219 -9.601562 -74.25 -9.601562 -74.25 C -9.523438 -74.25 -6.148438 -75.300781 -4.5 -75.824219 C -2.773438 -76.351562 0.601562 -77.398438 0.675781 -77.398438 C 0.75 -77.398438 4.199219 -77.625 6 -77.699219 C 7.726562 -77.773438 11.25 -78 11.324219 -78 C 11.398438 -78 14.773438 -77.324219 16.574219 -77.023438 C 18.300781 -76.648438 21.75 -76.050781 21.824219 -76.050781 C 21.824219 -76.050781 21.824219 -75.976562 21.824219 -75.976562 C 21.898438 -75.976562 25.050781 -74.550781 26.699219 -73.800781 C 28.273438 -73.050781 31.5 -71.625 31.5 -71.550781 C 31.648438 -71.476562 40.273438 -64.273438 44.175781 -58.648438 C 49.425781 -51.074219 50.324219 -32.699219 58.425781 -28.574219 C 67.125 -24.226562 82.726562 -35.925781 95.925781 -35.851562 C 110.773438 -35.699219 136.875 -27.375 143.101562 -26.175781 C 144.675781 -25.875 144.449219 -25.726562 146.023438 -25.648438 C 151.425781 -25.425781 170.699219 -28.125 183.601562 -29.324219 C 197.324219 -30.675781 211.574219 -32.023438 225.976562 -33.148438 C 240.675781 -34.273438 256.050781 -35.324219 270.898438 -36 C 285.449219 -36.601562 299.699219 -36.898438 314.101562 -37.050781 C 328.5 -37.273438 343.425781 -38.023438 357.300781 -37.050781 C 370.351562 -36.226562 383.398438 -36.523438 395.101562 -31.875 C 407.398438 -26.925781 421.425781 -17.773438 429.148438 -7.425781 C 436.5 2.476562 439.351562 15.824219 441.523438 28.199219 C 443.625 41.023438 443.550781 54.824219 441.601562 68.25 C 439.574219 82.351562 433.726562 98.324219 429.074219 111 C 425.25 121.648438 418.050781 132.523438 416.476562 139.648438 C 415.648438 143.699219 416.699219 144.976562 416.324219 149.398438 C 415.5 159 411.523438 180.148438 409.425781 194.773438 C 407.476562 208.5 405.976562 221.25 404.023438 234.449219 C 402 247.648438 398.550781 260.476562 397.5 273.898438 C 396.449219 287.625 394.949219 302.699219 397.875 315.898438 C 400.726562 328.574219 413.324219 338.324219 414.226562 351.523438 C 415.273438 367.125 408.601562 392.925781 398.25 403.949219 C 389.476562 413.324219 373.726562 415.875 360.898438 418.050781 C 348.300781 420.148438 335.023438 417.898438 321.976562 417.074219 C 308.773438 416.175781 295.125 414.148438 282.226562 412.800781 C 269.851562 411.449219 257.550781 408.898438 246.074219 408.898438 C 235.800781 408.898438 225.898438 411.675781 216.824219 412.050781 C 209.023438 412.351562 202.800781 411 194.925781 411.523438 C 185.398438 412.050781 175.050781 414.75 163.800781 416.023438 C 150.449219 417.601562 134.324219 419.851562 120.074219 419.851562 C 106.574219 419.851562 88.125 421.574219 80.324219 416.398438 C 75.148438 413.023438 74.476562 402.601562 72.074219 400.949219 C 71.175781 400.273438 70.125 400.273438 69.523438 400.5 C 69.074219 400.648438 69.148438 401.101562 68.476562 401.476562 C 65.101562 403.800781 44.851562 416.925781 32.851562 417.226562 C 20.925781 417.523438 5.773438 411.523438 -3.300781 403.351562 C -12.601562 394.949219 -19.5 375.148438 -21.824219 367.050781 C -22.875 363.300781 -21.074219 361.648438 -22.5 358.351562 C -24.976562 352.425781 -35.175781 345.300781 -41.550781 336.824219 C -49.574219 326.175781 -60.300781 310.800781 -65.773438 298.800781 C -70.199219 289.199219 -69.601562 279.148438 -74.023438 271.351562 C -78.148438 264 -84.601562 259.726562 -90.75 252.898438 C -98.398438 244.351562 -108.148438 233.773438 -116.398438 223.875 C -124.574219 213.976562 -132.824219 204.449219 -139.949219 193.5 C -147.449219 182.023438 -154.726562 169.050781 -160.199219 156.300781 C -165.601562 143.773438 -169.726562 130.875 -172.648438 117.601562 C -175.648438 104.175781 -177.898438 76.273438 -177.898438 76.273438 M -91.125 88.425781 C -70.5 135.226562 -60 150.824219 -54.75 157.800781 C -52.273438 161.175781 -51.601562 164.773438 -48.75 164.773438 C -42.449219 164.925781 -26.023438 139.875 -18.074219 132.148438 C -13.273438 127.648438 -8.398438 127.125 -6.148438 121.949219 C -2.851562 114.148438 -7.5 95.023438 -8.101562 86.699219 C -8.476562 82.050781 -7.574219 77.324219 -9.148438 75.976562 C -10.125 75.148438 -11.476562 76.199219 -13.800781 76.351562 C -20.476562 76.949219 -39.898438 78.148438 -52.800781 80.175781 C -65.699219 82.199219 -91.125 88.425781 -91.125 88.425781 M 59.773438 300.898438 C 63.375 306.75 64.949219 306 66.976562 306.148438 C 70.273438 306.375 76.199219 309.300781 79.949219 307.273438 C 85.050781 304.574219 87.375 294.148438 91.875 285.898438 C 97.875 274.726562 105.675781 259.875 112.800781 246.449219 C 120.226562 232.351562 128.175781 217.5 135.675781 203.25 C 142.875 189.375 154.351562 176.25 156.898438 162.074219 C 159.375 148.726562 158.925781 124.273438 152.175781 120.824219 C 145.574219 117.375 128.625 132.976562 117.601562 139.875 C 106.800781 146.699219 93.226562 156.976562 86.550781 162 C 83.25 164.476562 80.773438 164.851562 79.351562 167.773438 C 77.398438 171.75 79.199219 178.125 78.898438 185.324219 C 78.375 196.949219 78.074219 215.550781 75.976562 230.550781 C 73.949219 245.625 69.601562 262.648438 66.601562 275.476562 C 64.273438 285.226562 59.773438 300.898438 59.773438 300.898438 M 180 308.324219 C 191.101562 308.851562 215.851562 310.726562 224.101562 311.851562 C 227.925781 312.375 230.023438 313.425781 232.425781 313.425781 C 234.226562 313.425781 235.050781 312.898438 237.300781 312.375 C 242.023438 311.398438 253.273438 311.625 259.726562 307.574219 C 267 302.925781 273.449219 293.324219 277.574219 284.023438 C 282.226562 273.523438 282.074219 259.875 284.550781 247.050781 C 287.175781 233.175781 289.425781 217.800781 292.875 203.550781 C 296.25 189.601562 300.148438 175.574219 305.023438 162.675781 C 309.675781 150.300781 317.25 135.898438 321.148438 127.574219 C 323.398438 122.925781 325.425781 121.273438 326.476562 116.773438 C 327.976562 110.101562 327.148438 97.800781 326.398438 90.675781 C 325.949219 85.648438 326.851562 80.175781 323.851562 77.925781 C 319.5 74.773438 307.050781 80.324219 297.449219 80.699219 C 285.898438 81.074219 268.574219 80.023438 259.125 79.425781 C 253.648438 79.050781 247.648438 76.050781 246.074219 78.074219 C 243.976562 80.699219 251.324219 89.476562 252.675781 97.648438 C 254.851562 110.699219 254.773438 133.574219 252.523438 149.773438 C 250.5 164.476562 246.226562 177.148438 240.976562 190.949219 C 235.273438 205.875 226.5 221.25 218.925781 235.875 C 211.574219 250.199219 202.949219 264.824219 196.050781 277.726562 C 190.199219 288.675781 180 308.324219 180 308.324219 " clip-rule="nonzero"/></clipPath><clipPath id="cf5e38713e"><path d="M 339.449219 349.199219 C 329.324219 333.300781 320.699219 316.574219 318.375 303.976562 C 316.050781 291.75 318.300781 279.148438 319.125 266.476562 C 320.023438 253.351562 321 243.375 323.625 226.648438 C 328.125 197.550781 343.273438 137.699219 347.175781 108.300781 C 349.5 91.050781 350.101562 80.476562 350.101562 66.976562 C 350.175781 53.925781 341.625 32.773438 347.625 28.5 C 354.898438 23.324219 384.976562 51.976562 399.375 50.023438 C 411.375 48.375 424.273438 23.023438 429.449219 26.25 C 441.675781 33.675781 394.949219 187.425781 388.425781 229.050781 C 385.574219 247.5 384.675781 255.898438 384 269.101562 C 383.398438 281.925781 383.699219 292.199219 384.523438 307.050781 C 385.800781 328.199219 389.925781 367.199219 392.398438 383.925781 C 393.523438 392.101562 395.476562 396.824219 395.851562 402.148438 C 396.074219 406.199219 395.851562 409.425781 395.175781 412.949219 C 394.574219 416.476562 393.449219 420.074219 392.023438 423.300781 C 390.523438 426.601562 388.648438 429.75 386.398438 432.601562 C 384.226562 435.449219 381.601562 438.074219 378.75 440.324219 C 375.898438 442.5 372.75 444.449219 369.449219 445.949219 C 366.226562 447.449219 362.625 448.574219 359.101562 449.175781 C 355.574219 449.851562 351.898438 450.074219 348.300781 449.851562 C 344.699219 449.699219 341.023438 449.023438 337.648438 447.976562 C 334.199219 446.851562 330.824219 445.351562 327.75 443.550781 C 324.675781 441.675781 321.675781 439.351562 319.199219 436.875 C 316.648438 434.324219 314.324219 431.398438 312.449219 428.324219 C 310.574219 425.25 309.074219 421.875 307.949219 418.425781 C 306.898438 414.976562 308.625 409.273438 306 407.773438 C 301.050781 405 284.550781 419.023438 269.925781 421.648438 C 249.226562 425.398438 213.675781 422.398438 191.925781 420.824219 C 176.25 419.699219 165.148438 417.75 151.648438 415.5 C 137.773438 413.101562 123.375 408.976562 109.726562 406.726562 C 96.824219 404.699219 84.449219 403.125 71.773438 402.375 C 58.949219 401.699219 46.125 403.273438 33.148438 402.449219 C 19.726562 401.550781 2.925781 403.425781 -7.425781 396.976562 C -17.398438 390.75 -24.824219 377.550781 -28.574219 365.398438 C -32.699219 352.050781 -29.25 336.976562 -28.949219 319.425781 C -28.5 295.800781 -25.800781 259.125 -25.273438 236.476562 C -24.898438 220.726562 -25.648438 209.773438 -25.273438 196.5 C -24.976562 183.300781 -24.148438 170.101562 -23.25 156.976562 C -22.273438 143.851562 -20.625 130.875 -19.726562 117.824219 C -18.898438 104.773438 -16.574219 91.949219 -18.148438 78.675781 C -19.800781 64.5 -30.074219 50.773438 -30.148438 35.398438 C -30.300781 17.851562 -26.625 -10.425781 -15.148438 -21 C -4.875 -30.449219 10.875 -27.75 31.273438 -29.398438 C 69.675781 -32.476562 163.050781 -24.824219 198.976562 -26.476562 C 216 -27.226562 221.851562 -29.324219 236.625 -30.601562 C 257.925781 -32.398438 289.648438 -33.375 314.324219 -35.25 C 336.898438 -36.898438 365.175781 -41.773438 379.050781 -40.949219 C 385.648438 -40.574219 389.101562 -39.675781 393.675781 -37.875 C 398.25 -36.148438 402.75 -33.449219 406.5 -30.300781 C 410.25 -27.148438 413.699219 -23.25 416.25 -19.050781 C 418.800781 -14.851562 420.824219 -10.050781 421.875 -5.25 C 423 -0.449219 423.300781 4.800781 422.851562 9.675781 C 422.398438 14.550781 420.976562 19.574219 418.949219 24.074219 C 417 28.574219 414.074219 32.925781 410.699219 36.523438 C 407.398438 40.050781 403.273438 43.273438 398.925781 45.601562 C 394.648438 48 389.699219 49.648438 384.824219 50.550781 C 380.023438 51.375 374.773438 51.375 369.898438 50.625 C 365.023438 49.875 360.074219 48.300781 355.726562 46.050781 C 351.375 43.726562 347.175781 40.648438 343.800781 37.125 C 340.351562 33.523438 337.351562 29.25 335.25 24.824219 C 333.148438 20.398438 331.726562 15.375 331.199219 10.5 C 330.601562 5.625 330.824219 0.375 331.875 -4.425781 C 332.851562 -9.226562 334.726562 -14.101562 337.273438 -18.300781 C 339.75 -22.574219 343.050781 -26.550781 346.800781 -29.773438 C 350.476562 -33 354.976562 -35.773438 359.550781 -37.574219 C 364.050781 -39.449219 369.148438 -40.648438 374.023438 -40.949219 C 378.976562 -41.25 384.148438 -40.726562 388.875 -39.449219 C 393.675781 -38.175781 398.398438 -36 402.523438 -33.300781 C 406.574219 -30.601562 410.398438 -27 413.398438 -23.175781 C 416.398438 -19.273438 418.949219 -14.699219 420.523438 -10.050781 C 422.175781 -5.398438 423 -0.226562 423.074219 4.648438 C 423.148438 9.601562 422.324219 14.773438 420.824219 19.425781 C 419.25 24.074219 416.851562 28.726562 413.925781 32.699219 C 411 36.601562 407.25 40.199219 403.199219 43.050781 C 399.148438 45.824219 395.398438 47.773438 389.699219 49.425781 C 381.074219 51.898438 369.375 52.351562 355.648438 53.625 C 334.726562 55.574219 302.398438 56.773438 276.074219 58.800781 C 250.125 60.75 227.625 64.351562 198.976562 65.476562 C 162.824219 66.824219 105.074219 68.851562 76.425781 64.125 C 60.300781 61.425781 45.675781 61.273438 39.675781 52.050781 C 32.476562 41.101562 39.898438 -2.175781 45.074219 -3.226562 C 49.648438 -4.273438 61.949219 21.601562 66.75 34.800781 C 71.324219 47.398438 72.898438 60.75 73.949219 73.949219 C 74.925781 87.074219 73.5 98.023438 72.675781 113.625 C 71.550781 136.273438 67.800781 169.273438 66.675781 196.5 C 65.550781 222.898438 66.824219 252.75 65.925781 274.648438 C 65.25 290.550781 63.523438 302.175781 62.925781 315.675781 C 62.324219 328.875 65.773438 353.773438 62.324219 354.75 C 58.800781 355.648438 51.898438 327.226562 41.925781 320.773438 C 31.875 314.324219 2.25 317.925781 2.25 316.199219 C 2.175781 314.625 27.074219 311.851562 39.675781 311.023438 C 52.351562 310.199219 65.324219 310.574219 78.226562 311.324219 C 91.125 312 103.875 313.273438 117 315.375 C 130.726562 317.550781 144.898438 321.675781 158.925781 324.148438 C 172.875 326.625 183.300781 329.023438 200.773438 330.300781 C 229.648438 332.550781 288.074219 329.324219 316.351562 331.050781 C 332.851562 332.023438 343.949219 330.601562 355.425781 335.625 C 366.824219 340.574219 378.300781 350.175781 384.976562 360.898438 C 392.023438 372.148438 394.875 392.773438 395.851562 402.148438 C 396.300781 406.875 395.851562 409.425781 395.175781 412.949219 C 394.574219 416.476562 393.449219 420 392.023438 423.300781 C 390.523438 426.601562 388.648438 429.75 386.398438 432.601562 C 384.226562 435.449219 381.601562 438.074219 378.75 440.324219 C 375.898438 442.5 372.75 444.449219 369.449219 445.949219 C 366.226562 447.449219 362.699219 448.574219 359.101562 449.175781 C 355.574219 449.851562 351.898438 450.074219 348.300781 449.851562 C 344.699219 449.699219 341.023438 449.023438 337.648438 447.976562 C 334.199219 446.851562 330.824219 445.351562 327.75 443.550781 C 324.675781 441.675781 321.75 439.351562 319.199219 436.875 C 316.648438 434.324219 314.324219 431.398438 312.449219 428.324219 C 310.574219 425.25 309.074219 421.875 307.949219 418.425781 C 306.898438 415.050781 305.773438 407.851562 306 407.773438 C 306.148438 407.699219 307.800781 413.925781 308.101562 413.851562 C 308.773438 413.699219 302.25 382.199219 300.300781 367.425781 C 298.574219 354.148438 297.523438 342.148438 296.625 329.25 C 295.726562 316.050781 294.976562 302.398438 294.898438 289.125 C 294.824219 275.925781 294.976562 263.101562 296.175781 249.824219 C 297.449219 236.101562 299.175781 225.523438 302.25 207.976562 C 307.648438 177.675781 320.023438 121.351562 327.824219 84.824219 C 334.050781 55.648438 334.199219 23.851562 345.148438 6.074219 C 352.875 -6.375 363.75 -18.300781 375.824219 -18.824219 C 391.949219 -19.574219 425.324219 4.875 434.023438 20.25 C 440.398438 31.648438 435.824219 45.226562 435.75 58.273438 C 435.75 72 435 86.773438 433.5 100.648438 C 432 114.074219 430.050781 125.023438 426.976562 140.25 C 422.625 161.476562 413.324219 195 408.601562 216 C 405.300781 230.851562 402.675781 240.976562 400.726562 254.175781 C 398.699219 268.273438 394.351562 287.324219 396.75 298.199219 C 398.324219 305.324219 404.398438 309.976562 406.351562 314.699219 C 407.625 318.074219 408.074219 320.625 408.449219 323.625 C 408.75 326.625 408.75 329.773438 408.375 332.773438 C 408 335.773438 407.175781 338.773438 406.125 341.625 C 405 344.398438 403.574219 347.175781 401.773438 349.648438 C 400.050781 352.125 397.949219 354.449219 395.699219 356.476562 C 393.375 358.425781 390.824219 360.226562 388.125 361.574219 C 385.425781 363 382.5 364.050781 379.574219 364.800781 C 376.648438 365.476562 373.5 365.851562 370.5 365.773438 C 367.425781 365.773438 364.351562 365.398438 361.425781 364.648438 C 358.5 363.898438 355.574219 362.699219 352.875 361.273438 C 350.25 359.851562 347.699219 358.050781 345.449219 356.023438 C 343.199219 354 339.449219 349.199219 339.449219 349.199219 " clip-rule="nonzero"/></clipPath><clipPath id="334b058357"><path d="M 146 74 L 324.570312 74 L 324.570312 333 L 146 333 Z M 146 74 " clip-rule="nonzero"/></clipPath><clipPath id="2804dbeb5a"><path d="M 35.808594 18.75 L 215 18.75 L 215 277 L 35.808594 277 Z M 35.808594 18.75 " clip-rule="nonzero"/></clipPath></defs><rect x="-37.5" width="450" fill="#ffffff" y="-37.499999" height="449.999989" fill-opacity="1"/><rect x="-37.5" width="450" fill="#060915" y="-37.499999" height="449.999989" fill-opacity="1"/><g clip-path="url(#b0a150caab)"><g clip-path="url(#54578bcbaa)"><path fill="#060915" d="M -59.625 2.324219 L 261.824219 2.324219 L 261.824219 403.199219 L -59.625 403.199219 Z M -59.625 2.324219 " fill-opacity="1" fill-rule="nonzero"/></g></g><g clip-path="url(#6e0e866650)"><rect x="-37.5" width="450" fill="#060915" y="-37.499999" height="449.999989" fill-opacity="1"/></g><g clip-path="url(#cf5e38713e)"><rect x="-37.5" width="450" fill="#060915" y="-37.499999" height="449.999989" fill-opacity="1"/></g><g clip-path="url(#334b058357)"><path fill="#ffffff" d="M 324.46875 331.878906 C 316.164062 318.644531 307.851562 305.40625 299.53125 292.171875 L 287.042969 272.367188 L 274.511719 252.554688 L 249.402344 212.957031 L 225.851562 175.867188 L 256.175781 131.335938 L 264.160156 119.628906 C 266.832031 115.730469 269.480469 111.820312 272.171875 107.9375 L 288.300781 84.632812 L 294.824219 75.210938 L 208.808594 74.632812 L 206.996094 77.871094 C 204.347656 82.617188 201.753906 87.390625 199.140625 92.152344 L 197.183594 95.734375 L 195.253906 99.328125 L 191.375 106.5 L 183.707031 120.890625 L 179.800781 128.316406 C 178.3125 126.050781 176.820312 123.792969 175.324219 121.539062 L 170.753906 114.695312 L 166.136719 107.878906 L 161.515625 101.078125 L 156.835938 94.308594 C 153.699219 89.792969 150.515625 85.3125 147.289062 80.863281 C 147.195312 80.703125 147.058594 80.601562 146.878906 80.554688 C 146.699219 80.507812 146.53125 80.53125 146.371094 80.625 C 146.214844 80.714844 146.109375 80.851562 146.0625 81.03125 C 146.015625 81.210938 146.039062 81.378906 146.132812 81.539062 C 148.476562 86.503906 150.886719 91.4375 153.359375 96.34375 L 157.0625 103.699219 L 160.8125 111.03125 L 164.59375 118.339844 L 168.410156 125.625 C 170.980469 130.46875 173.542969 135.316406 176.144531 140.144531 L 179.902344 147.105469 L 184.378906 140.085938 C 187.300781 135.496094 190.152344 130.882812 193.039062 126.277344 L 201.617188 112.421875 L 205.871094 105.464844 L 207.996094 102.003906 L 210.101562 98.539062 C 212.230469 95.011719 214.367188 91.488281 216.480469 87.957031 C 218.167969 87.957031 269.589844 87.761719 271.636719 87.71875 L 262.796875 101.753906 C 260.285156 105.753906 257.726562 109.722656 255.195312 113.710938 L 247.5625 125.648438 L 217 173.382812 L 215.40625 175.867188 L 217 178.175781 L 243.496094 216.855469 L 270.054688 255.492188 L 283.332031 274.800781 L 296.65625 294.089844 C 305.53125 306.964844 314.433594 319.8125 323.371094 332.628906 C 323.472656 332.777344 323.613281 332.871094 323.789062 332.902344 C 323.964844 332.9375 324.128906 332.90625 324.277344 332.808594 C 324.429688 332.707031 324.523438 332.570312 324.558594 332.394531 C 324.597656 332.214844 324.566406 332.054688 324.46875 331.902344 Z M 324.46875 331.878906 " fill-opacity="1" fill-rule="nonzero"/></g><g clip-path="url(#2804dbeb5a)"><path fill="#ffffff" d="M 207.128906 255.21875 L 203.429688 247.859375 L 199.683594 240.535156 L 195.894531 233.226562 L 192.078125 225.941406 C 189.511719 221.089844 186.953125 216.242188 184.34375 211.421875 L 180.585938 204.453125 L 176.109375 211.480469 C 173.191406 216.0625 170.339844 220.679688 167.453125 225.289062 L 158.867188 239.144531 L 154.617188 246.097656 L 152.488281 249.5625 L 150.386719 253.027344 C 148.257812 256.554688 146.140625 260.082031 144.035156 263.609375 C 142.351562 263.609375 90.925781 263.8125 88.878906 263.851562 L 97.691406 249.816406 C 100.210938 245.816406 102.765625 241.84375 105.300781 237.863281 L 112.933594 225.917969 L 143.496094 178.179688 L 145.082031 175.699219 L 143.496094 173.390625 L 116.996094 134.792969 L 90.441406 96.234375 L 77.164062 76.964844 L 63.828125 57.71875 C 54.960938 44.878906 46.058594 32.0625 37.117188 19.269531 C 37.019531 19.125 36.882812 19.035156 36.710938 19 C 36.539062 18.964844 36.378906 18.992188 36.226562 19.085938 C 36.078125 19.183594 35.980469 19.320312 35.9375 19.496094 C 35.898438 19.671875 35.925781 19.839844 36.019531 19.992188 C 44.332031 33.210938 52.648438 46.417969 60.960938 59.617188 L 73.445312 79.414062 L 85.980469 99.179688 L 111.078125 138.699219 L 134.640625 175.703125 L 104.332031 220.238281 L 96.347656 231.945312 C 93.675781 235.835938 91.03125 239.75 88.335938 243.632812 L 72.203125 266.941406 L 65.6875 276.359375 L 151.703125 276.9375 L 153.523438 273.671875 C 156.171875 268.925781 158.769531 264.152344 161.378906 259.386719 L 163.335938 255.808594 L 165.277344 252.222656 L 169.15625 245.054688 L 176.78125 230.679688 L 180.6875 223.261719 L 185.164062 230.027344 L 189.734375 236.867188 L 194.351562 243.691406 L 198.972656 250.492188 L 203.652344 257.265625 C 206.785156 261.773438 209.96875 266.253906 213.203125 270.703125 C 213.300781 270.839844 213.433594 270.925781 213.601562 270.957031 C 213.765625 270.992188 213.921875 270.964844 214.066406 270.878906 C 214.214844 270.792969 214.3125 270.667969 214.359375 270.507812 C 214.410156 270.34375 214.398438 270.1875 214.328125 270.035156 C 212.003906 265.082031 209.601562 260.144531 207.128906 255.21875 Z M 207.128906 255.21875 " fill-opacity="1" fill-rule="nonzero"/></g><g fill="#ffffff" fill-opacity="1"><g transform="translate(165.585888, 353.887471)"><g><path d="M 6.734375 0 L 5.6875 0 L 1.875 -4.203125 L 1.875 0 L 1.03125 0 L 1.03125 -8.484375 L 1.875 -8.484375 L 1.875 -4.96875 L 5.296875 -8.484375 L 6.34375 -8.484375 L 2.59375 -4.578125 Z M 6.734375 0 "/></g></g></g><g fill="#ffffff" fill-opacity="1"><g transform="translate(172.90964, 353.887471)"><g><path d="M 10.203125 0 L 9.375 0 L 8.59375 -5.765625 L 8.546875 -6.078125 L 8.40625 -5.78125 L 5.546875 0 L 5.34375 0 L 2.4375 -5.78125 L 2.296875 -6.109375 L 2.25 -5.75 L 1.46875 0 L 0.65625 0 L 1.859375 -8.484375 L 2 -8.484375 L 5.3125 -1.796875 L 5.453125 -1.53125 L 5.59375 -1.8125 L 8.859375 -8.484375 L 9 -8.484375 Z M 10.203125 0 "/></g></g></g><g fill="#ffffff" fill-opacity="1"><g transform="translate(184.355966, 353.887471)"><g><path d="M 1.03125 -8.484375 L 5.875 -8.484375 L 5.875 -7.671875 L 1.875 -7.671875 L 1.875 -4.984375 L 5.875 -4.984375 L 5.875 -4.1875 L 1.875 -4.1875 L 1.875 -0.828125 L 5.875 -0.828125 L 5.875 0 L 1.03125 0 Z M 1.03125 -8.484375 "/></g></g></g><g fill="#ffffff" fill-opacity="1"><g transform="translate(191.266284, 353.887471)"><g><path d="M 6.828125 -8.484375 L 7.671875 -8.484375 L 7.671875 0 L 7.484375 0 L 1.875 -6.421875 L 1.875 0 L 1.03125 0 L 1.03125 -8.484375 L 1.203125 -8.484375 L 6.828125 -1.984375 Z M 6.828125 -8.484375 "/></g></g></g><g fill="#ffffff" fill-opacity="1"><g transform="translate(200.55092, 353.887471)"><g><path d="M 9.71875 -4.078125 L 9.71875 -4.046875 C 9.71875 -3.171875 9.535156 -2.410156 9.171875 -1.765625 C 8.816406 -1.128906 8.316406 -0.640625 7.671875 -0.296875 C 7.035156 0.0351562 6.296875 0.203125 5.453125 0.203125 C 4.515625 0.203125 3.679688 0 2.953125 -0.40625 C 2.222656 -0.820312 1.660156 -1.367188 1.265625 -2.046875 C 0.867188 -2.722656 0.671875 -3.453125 0.671875 -4.234375 C 0.671875 -5.046875 0.867188 -5.789062 1.265625 -6.46875 C 1.660156 -7.144531 2.207031 -7.679688 2.90625 -8.078125 C 3.613281 -8.484375 4.421875 -8.6875 5.328125 -8.6875 C 6.085938 -8.6875 6.78125 -8.550781 7.40625 -8.28125 C 8.03125 -8.007812 8.632812 -7.597656 9.21875 -7.046875 L 8.5625 -6.4375 C 8.09375 -6.90625 7.578125 -7.257812 7.015625 -7.5 C 6.453125 -7.738281 5.894531 -7.859375 5.34375 -7.859375 C 4.632812 -7.859375 3.988281 -7.703125 3.40625 -7.390625 C 2.832031 -7.078125 2.378906 -6.644531 2.046875 -6.09375 C 1.722656 -5.539062 1.5625 -4.929688 1.5625 -4.265625 C 1.5625 -3.617188 1.726562 -3.015625 2.0625 -2.453125 C 2.40625 -1.898438 2.875 -1.457031 3.46875 -1.125 C 4.070312 -0.789062 4.742188 -0.625 5.484375 -0.625 C 6.023438 -0.625 6.53125 -0.722656 7 -0.921875 C 7.476562 -1.128906 7.867188 -1.429688 8.171875 -1.828125 C 8.484375 -2.222656 8.679688 -2.695312 8.765625 -3.25 L 6.0625 -3.25 L 6.0625 -4.078125 Z M 9.71875 -4.078125 "/></g></g></g><g fill="#ffffff" fill-opacity="1"><g transform="translate(211.442065, 353.887471)"><g/></g></g><g fill="#ffffff" fill-opacity="1"><g transform="translate(215.30475, 353.887471)"><g><path d="M 6.734375 0 L 5.6875 0 L 1.875 -4.203125 L 1.875 0 L 1.03125 0 L 1.03125 -8.484375 L 1.875 -8.484375 L 1.875 -4.96875 L 5.296875 -8.484375 L 6.34375 -8.484375 L 2.59375 -4.578125 Z M 6.734375 0 "/></g></g></g><g fill="#ffffff" fill-opacity="1"><g transform="translate(222.6285, 353.887471)"><g><path d="M 1.03125 -8.484375 L 1.875 -8.484375 L 1.875 -4.921875 L 6.203125 -4.921875 L 6.203125 -8.484375 L 7.046875 -8.484375 L 7.046875 0 L 6.203125 0 L 6.203125 -4.09375 L 1.875 -4.09375 L 1.875 0 L 1.03125 0 Z M 1.03125 -8.484375 "/></g></g></g><g fill="#ffffff" fill-opacity="1"><g transform="translate(231.287074, 353.887471)"><g><path d="M 10.203125 0 L 9.375 0 L 8.59375 -5.765625 L 8.546875 -6.078125 L 8.40625 -5.78125 L 5.546875 0 L 5.34375 0 L 2.4375 -5.78125 L 2.296875 -6.109375 L 2.25 -5.75 L 1.46875 0 L 0.65625 0 L 1.859375 -8.484375 L 2 -8.484375 L 5.3125 -1.796875 L 5.453125 -1.53125 L 5.59375 -1.8125 L 8.859375 -8.484375 L 9 -8.484375 Z M 10.203125 0 "/></g></g></g><g fill="#ffffff" fill-opacity="1"><g transform="translate(242.733398, 353.887471)"><g><path d="M 1.03125 -8.484375 L 5.875 -8.484375 L 5.875 -7.671875 L 1.875 -7.671875 L 1.875 -4.984375 L 5.875 -4.984375 L 5.875 -4.1875 L 1.875 -4.1875 L 1.875 -0.828125 L 5.875 -0.828125 L 5.875 0 L 1.03125 0 Z M 1.03125 -8.484375 "/></g></g></g><g fill="#ffffff" fill-opacity="1"><g transform="translate(249.643715, 353.887471)"><g><path d="M 3.453125 -8.484375 C 4.421875 -8.484375 5.144531 -8.28125 5.625 -7.875 C 6.101562 -7.476562 6.34375 -6.925781 6.34375 -6.21875 C 6.34375 -5.71875 6.21875 -5.296875 5.96875 -4.953125 C 5.726562 -4.617188 5.382812 -4.367188 4.9375 -4.203125 C 4.5 -4.035156 3.988281 -3.953125 3.40625 -3.953125 L 6.46875 0 L 5.40625 0 L 2.40625 -3.953125 L 1.875 -3.953125 L 1.875 0 L 1.03125 0 L 1.03125 -8.484375 Z M 3.40625 -4.765625 C 4.050781 -4.765625 4.550781 -4.882812 4.90625 -5.125 C 5.269531 -5.363281 5.453125 -5.726562 5.453125 -6.21875 C 5.453125 -6.65625 5.296875 -7.003906 4.984375 -7.265625 C 4.679688 -7.523438 4.222656 -7.65625 3.609375 -7.65625 L 1.875 -7.65625 L 1.875 -4.765625 Z M 3.40625 -4.765625 "/></g></g></g><g fill="#ffffff" fill-opacity="1"><g transform="translate(257.227346, 353.887471)"><g/></g></g><g fill="#ffffff" fill-opacity="1"><g transform="translate(261.090031, 353.887471)"><g><path d="M 10.203125 0 L 9.375 0 L 8.59375 -5.765625 L 8.546875 -6.078125 L 8.40625 -5.78125 L 5.546875 0 L 5.34375 0 L 2.4375 -5.78125 L 2.296875 -6.109375 L 2.25 -5.75 L 1.46875 0 L 0.65625 0 L 1.859375 -8.484375 L 2 -8.484375 L 5.3125 -1.796875 L 5.453125 -1.53125 L 5.59375 -1.8125 L 8.859375 -8.484375 L 9 -8.484375 Z M 10.203125 0 "/></g></g></g><g fill="#ffffff" fill-opacity="1"><g transform="translate(272.536355, 353.887471)"><g><path d="M 7.265625 0 L 5.96875 -2.78125 L 2.25 -2.78125 L 0.9375 0 L 0.0625 0 L 4.015625 -8.484375 L 4.21875 -8.484375 L 8.15625 0 Z M 2.625 -3.59375 L 5.59375 -3.59375 L 4.109375 -6.765625 Z M 2.625 -3.59375 "/></g></g></g><g fill="#ffffff" fill-opacity="1"><g transform="translate(281.336675, 353.887471)"><g><path d="M 3.125 -8.484375 C 4.1875 -8.484375 5.097656 -8.316406 5.859375 -7.984375 C 6.617188 -7.660156 7.195312 -7.175781 7.59375 -6.53125 C 7.988281 -5.882812 8.1875 -5.085938 8.1875 -4.140625 C 8.1875 -2.785156 7.800781 -1.753906 7.03125 -1.046875 C 6.257812 -0.347656 5.085938 0 3.515625 0 L 1.03125 0 L 1.03125 -8.484375 Z M 3.515625 -0.828125 C 4.742188 -0.828125 5.679688 -1.09375 6.328125 -1.625 C 6.972656 -2.164062 7.296875 -3.003906 7.296875 -4.140625 C 7.296875 -5.347656 6.929688 -6.234375 6.203125 -6.796875 C 5.472656 -7.367188 4.445312 -7.65625 3.125 -7.65625 L 1.875 -7.65625 L 1.875 -0.828125 Z M 3.515625 -0.828125 "/></g></g></g><g fill="#ffffff" fill-opacity="1"><g transform="translate(290.774877, 353.887471)"><g><path d="M 1.03125 -8.484375 L 5.875 -8.484375 L 5.875 -7.671875 L 1.875 -7.671875 L 1.875 -4.984375 L 5.875 -4.984375 L 5.875 -4.1875 L 1.875 -4.1875 L 1.875 -0.828125 L 5.875 -0.828125 L 5.875 0 L 1.03125 0 Z M 1.03125 -8.484375 "/></g></g></g><g fill="#ffffff" fill-opacity="1"><g transform="translate(44.661577, 328.065021)"><g><path d="M 11.9375 0 L 10.078125 0 L 3.328125 -7.453125 L 3.328125 0 L 1.828125 0 L 1.828125 -15.046875 L 3.328125 -15.046875 L 3.328125 -8.796875 L 9.40625 -15.046875 L 11.25 -15.046875 L 4.59375 -8.109375 Z M 11.9375 0 "/></g></g></g><g fill="#ffffff" fill-opacity="1"><g transform="translate(73.365306, 328.065021)"><g><path d="M 5.890625 -15.046875 C 7.546875 -15.046875 8.851562 -14.75 9.8125 -14.15625 C 10.769531 -13.570312 11.25 -12.535156 11.25 -11.046875 C 11.25 -9.523438 10.75 -8.46875 9.75 -7.875 C 8.75 -7.289062 7.421875 -7 5.765625 -7 L 3.328125 -7 L 3.328125 0 L 1.828125 0 L 1.828125 -15.046875 Z M 5.828125 -8.46875 C 6.640625 -8.46875 7.320312 -8.539062 7.875 -8.6875 C 8.4375 -8.832031 8.878906 -9.09375 9.203125 -9.46875 C 9.523438 -9.84375 9.6875 -10.367188 9.6875 -11.046875 C 9.6875 -11.992188 9.359375 -12.648438 8.703125 -13.015625 C 8.054688 -13.390625 7.15625 -13.578125 6 -13.578125 L 3.328125 -13.578125 L 3.328125 -8.46875 Z M 5.828125 -8.46875 "/></g></g></g><g fill="#ffffff" fill-opacity="1"><g transform="translate(102.006196, 328.065021)"><g><path d="M 9.28125 0.359375 C 7.644531 0.359375 6.210938 0.00390625 4.984375 -0.703125 C 3.753906 -1.410156 2.8125 -2.367188 2.15625 -3.578125 C 1.5 -4.785156 1.171875 -6.128906 1.171875 -7.609375 C 1.171875 -9.078125 1.519531 -10.40625 2.21875 -11.59375 C 2.914062 -12.78125 3.882812 -13.710938 5.125 -14.390625 C 6.363281 -15.078125 7.75 -15.421875 9.28125 -15.421875 C 10.644531 -15.421875 11.882812 -15.148438 13 -14.609375 C 14.125 -14.078125 15.050781 -13.289062 15.78125 -12.25 L 14.578125 -11.359375 C 13.941406 -12.210938 13.171875 -12.859375 12.265625 -13.296875 C 11.367188 -13.734375 10.378906 -13.953125 9.296875 -13.953125 C 8.109375 -13.953125 7.015625 -13.675781 6.015625 -13.125 C 5.023438 -12.570312 4.234375 -11.800781 3.640625 -10.8125 C 3.046875 -9.832031 2.75 -8.722656 2.75 -7.484375 C 2.75 -6.253906 3.035156 -5.148438 3.609375 -4.171875 C 4.191406 -3.191406 4.988281 -2.421875 6 -1.859375 C 7.007812 -1.304688 8.140625 -1.03125 9.390625 -1.03125 C 10.429688 -1.03125 11.394531 -1.238281 12.28125 -1.65625 C 13.175781 -2.070312 13.972656 -2.691406 14.671875 -3.515625 L 15.859375 -2.625 C 15.085938 -1.644531 14.140625 -0.898438 13.015625 -0.390625 C 11.890625 0.109375 10.644531 0.359375 9.28125 0.359375 Z M 9.28125 0.359375 "/></g></g></g><g fill="#ffffff" fill-opacity="1"><g transform="translate(135.819967, 328.065021)"><g><path d="M 5.515625 -7.75 L 1.046875 -15.046875 L 2.8125 -15.046875 L 6.40625 -9.171875 L 10.03125 -15.046875 L 11.78125 -15.046875 L 7.296875 -7.75 L 12.0625 0 L 10.3125 0 L 6.40625 -6.3125 L 2.46875 0 L 0.71875 0 Z M 5.515625 -7.75 "/></g></g></g><g fill="#ffffff" fill-opacity="1"><g transform="translate(165.340462, 328.065021)"><g><path d="M 5 -15.046875 C 6.019531 -15.046875 6.875 -14.882812 7.5625 -14.5625 C 8.257812 -14.25 8.773438 -13.820312 9.109375 -13.28125 C 9.453125 -12.738281 9.625 -12.101562 9.625 -11.375 C 9.625 -10.707031 9.460938 -10.097656 9.140625 -9.546875 C 8.816406 -9.003906 8.332031 -8.5625 7.6875 -8.21875 C 9.800781 -7.5 10.859375 -6.195312 10.859375 -4.3125 C 10.859375 -3.539062 10.664062 -2.828125 10.28125 -2.171875 C 9.894531 -1.515625 9.332031 -0.988281 8.59375 -0.59375 C 7.851562 -0.195312 6.972656 0 5.953125 0 L 1.828125 0 L 1.828125 -15.046875 Z M 4.34375 -8.734375 C 5.507812 -8.734375 6.414062 -8.945312 7.0625 -9.375 C 7.71875 -9.800781 8.046875 -10.46875 8.046875 -11.375 C 8.046875 -12.050781 7.800781 -12.585938 7.3125 -12.984375 C 6.832031 -13.378906 6.160156 -13.578125 5.296875 -13.578125 L 3.328125 -13.578125 L 3.328125 -8.734375 Z M 5.65625 -1.46875 C 6.46875 -1.46875 7.144531 -1.59375 7.6875 -1.84375 C 8.226562 -2.101562 8.628906 -2.453125 8.890625 -2.890625 C 9.148438 -3.328125 9.28125 -3.796875 9.28125 -4.296875 C 9.28125 -4.921875 9.109375 -5.457031 8.765625 -5.90625 C 8.421875 -6.351562 7.921875 -6.691406 7.265625 -6.921875 C 6.609375 -7.148438 5.820312 -7.265625 4.90625 -7.265625 L 3.328125 -7.265625 L 3.328125 -1.46875 Z M 5.65625 -1.46875 "/></g></g></g><g fill="#ffffff" fill-opacity="1"><g transform="translate(194.086075, 328.065021)"><g><path d="M 12.890625 0 L 10.578125 -4.9375 L 3.984375 -4.9375 L 1.671875 0 L 0.109375 0 L 7.125 -15.046875 L 7.484375 -15.046875 L 14.453125 0 Z M 4.65625 -6.375 L 9.90625 -6.375 L 7.296875 -12 Z M 4.65625 -6.375 "/></g></g></g><g fill="#ffffff" fill-opacity="1"><g transform="translate(225.407642, 328.065021)"><g><path d="M 12.109375 -15.046875 L 13.625 -15.046875 L 13.625 0 L 13.28125 0 L 3.328125 -11.375 L 3.328125 0 L 1.828125 0 L 1.828125 -15.046875 L 2.140625 -15.046875 L 12.109375 -3.515625 Z M 12.109375 -15.046875 "/></g></g></g><g fill="#ffffff" fill-opacity="1"><g transform="translate(257.587882, 328.065021)"><g><path d="M 11.9375 0 L 10.078125 0 L 3.328125 -7.453125 L 3.328125 0 L 1.828125 0 L 1.828125 -15.046875 L 3.328125 -15.046875 L 3.328125 -8.796875 L 9.40625 -15.046875 L 11.25 -15.046875 L 4.59375 -8.109375 Z M 11.9375 0 "/></g></g></g></svg>